<svg width="24" height="24" viewBox="0 0 24 24" fill="none" xmlns="http://www.w3.org/2000/svg">
<g clip-path="url(#clip0_23_1774)">
<path d="M18 9C18.852 9 19.297 9.986 18.783 10.623L18.707 10.707L12.707 16.707C12.5348 16.8792 12.3057 16.9826 12.0627 16.9979C11.8197 17.0132 11.5794 16.9393 11.387 16.79L11.293 16.707L5.293 10.707L5.21 10.613L5.156 10.536L5.102 10.44L5.085 10.404L5.058 10.337L5.026 10.229L5.016 10.176L5.006 10.116L5.002 10.059V9.941L5.007 9.883L5.016 9.823L5.026 9.771L5.058 9.663L5.085 9.596L5.155 9.464L5.22 9.374L5.293 9.293L5.387 9.21L5.464 9.156L5.56 9.102L5.596 9.085L5.663 9.058L5.771 9.026L5.824 9.016L5.884 9.006L5.941 9.002L18 9Z" fill="black"/>
</g>
<defs>
<clipPath id="clip0_23_1774">
<rect width="24" height="24" fill="white"/>
</clipPath>
</defs>
</svg>
