<svg width="24" height="24" viewBox="0 0 24 24" fill="none" xmlns="http://www.w3.org/2000/svg">
<g clip-path="url(#clip0_76_638)">
<path d="M19.5 12.572L12 20L4.5 12.572C4.00531 12.0906 3.61564 11.512 3.35555 10.8726C3.09545 10.2333 2.97056 9.54694 2.98874 8.85693C3.00691 8.16691 3.16776 7.48813 3.46116 6.86333C3.75455 6.23853 4.17414 5.68125 4.69349 5.22657C5.21284 4.7719 5.8207 4.42968 6.47881 4.22147C7.13692 4.01327 7.83101 3.94358 8.51737 4.0168C9.20373 4.09001 9.8675 4.30455 10.4669 4.6469C11.0663 4.98925 11.5882 5.45199 12 6.00599C12.4135 5.45602 12.9361 4.99731 13.5351 4.6586C14.1341 4.31988 14.7965 4.10844 15.4809 4.03751C16.1654 3.96658 16.8571 4.03769 17.5128 4.24639C18.1685 4.45508 18.774 4.79687 19.2916 5.25036C19.8091 5.70385 20.2274 6.25928 20.5204 6.88189C20.8134 7.50449 20.9747 8.18088 20.9943 8.8687C21.0139 9.55653 20.8913 10.241 20.6341 10.8792C20.377 11.5175 19.9909 12.0958 19.5 12.578" stroke="black" stroke-width="2" stroke-linecap="round" stroke-linejoin="round"/>
</g>
<defs>
<clipPath id="clip0_76_638">
<rect width="24" height="24" fill="white"/>
</clipPath>
</defs>
</svg>
