<svg width="122" height="39" viewBox="0 0 122 39" fill="none" xmlns="http://www.w3.org/2000/svg">
<path d="M48.0224 5.44458H50.42L55.816 16.596H53.442L52.5525 14.7168H46.0372L45.1712 16.596H42.7854L48.0224 5.44458ZM51.6512 12.8553L49.2418 7.78915L46.8913 12.8553H51.6512Z" fill="black"/>
<path d="M56.087 5.44458H61.9661C62.8202 5.44458 63.5625 5.53883 64.1928 5.72145C64.8231 5.90407 65.3415 6.17505 65.7539 6.52261C66.1663 6.87017 66.4785 7.30021 66.6788 7.80093C66.8791 8.30754 66.9792 8.87307 66.9792 9.50928C66.9792 10.1043 66.8791 10.6521 66.6788 11.1587C66.4785 11.6653 66.1722 12.1013 65.7598 12.4665C65.3474 12.8376 64.829 13.1204 64.1987 13.3325C63.5684 13.5386 62.8261 13.6447 61.972 13.6447L58.3373 13.6388V16.6019H56.0752V5.44458H56.087ZM62.025 11.683C62.455 11.683 62.8261 11.63 63.1501 11.5299C63.4682 11.4297 63.7392 11.2824 63.9572 11.0939C64.1751 10.9054 64.3342 10.6757 64.4402 10.4106C64.5463 10.1396 64.5993 9.84506 64.5993 9.51517C64.5993 8.8554 64.3813 8.337 63.9513 7.97176C63.5213 7.60064 62.8792 7.41802 62.0191 7.41802H58.3432V11.683H62.025Z" fill="black"/>
<path d="M67.7039 5.44458H69.9777V16.596H67.7039V5.44458Z" fill="black"/>
<path d="M43.5394 24.9611C43.5394 24.1658 43.6867 23.4236 43.9871 22.7402C44.2876 22.051 44.7235 21.456 45.289 20.9494C45.8545 20.4428 46.5497 20.0422 47.3744 19.7536C48.1932 19.4649 49.124 19.3176 50.1608 19.3176C51.068 19.3176 51.9045 19.4119 52.6644 19.5945C53.4243 19.7771 54.1312 20.0599 54.7792 20.431L53.7365 22.1452C53.5421 22.0156 53.3183 21.9037 53.065 21.8036C52.8117 21.7034 52.5407 21.621 52.252 21.5503C51.9634 21.4796 51.6688 21.4266 51.3625 21.3912C51.0562 21.3559 50.7499 21.3323 50.4553 21.3323C49.7307 21.3323 49.0886 21.4207 48.5231 21.5974C47.9576 21.7741 47.4804 22.0274 47.0916 22.3455C46.7028 22.6695 46.4083 23.0524 46.208 23.4943C46.0077 23.942 45.9076 24.4309 45.9076 24.9611C45.9076 25.5148 46.0136 26.0214 46.2198 26.4809C46.4318 26.9404 46.7323 27.341 47.127 27.6768C47.5217 28.0126 48.0106 28.2718 48.582 28.4603C49.1534 28.6488 49.8014 28.743 50.526 28.743C50.8559 28.743 51.1799 28.7195 51.5039 28.6723C51.8279 28.6252 52.1401 28.5604 52.4405 28.4779C52.741 28.3955 53.0355 28.2953 53.3124 28.1775C53.5952 28.0597 53.8544 27.936 54.0959 27.7946L55.1386 29.5088C54.5318 29.8976 53.8249 30.204 53.0237 30.4278C52.2226 30.6517 51.3743 30.7577 50.4789 30.7577C49.3302 30.7577 48.3287 30.6104 47.4627 30.31C46.5968 30.0155 45.8722 29.6031 45.2949 29.0847C44.7117 28.5663 44.2758 27.9478 43.9871 27.2409C43.6867 26.5339 43.5394 25.774 43.5394 24.9611Z" fill="#808080"/>
<path d="M55.3918 26.3927C55.3918 25.7859 55.5156 25.2204 55.7571 24.6961C56.0045 24.1659 56.3521 23.7065 56.8057 23.3118C57.2593 22.9171 57.8071 22.6049 58.4551 22.3751C59.0972 22.1454 59.8218 22.0334 60.6288 22.0334C61.43 22.0334 62.1546 22.1454 62.8026 22.3751C63.4447 22.6049 63.9984 22.9171 64.452 23.3118C64.9056 23.7065 65.2532 24.1659 65.5006 24.6961C65.748 25.2263 65.8658 25.7918 65.8658 26.3927C65.8658 26.9936 65.7421 27.565 65.5006 28.0893C65.2532 28.6194 64.9056 29.0789 64.452 29.4736C63.9984 29.8683 63.4506 30.1805 62.8026 30.4103C62.1605 30.64 61.4359 30.7519 60.6288 30.7519C59.8218 30.7519 59.1031 30.64 58.4551 30.4103C57.813 30.1805 57.2593 29.8683 56.8057 29.4736C56.3521 29.0789 56.0045 28.6194 55.7571 28.0893C55.5156 27.565 55.3918 26.9995 55.3918 26.3927ZM57.6127 26.3927C57.6127 26.7285 57.6834 27.0525 57.8189 27.3529C57.9544 27.6533 58.1547 27.9184 58.4139 28.1541C58.6731 28.3838 58.9912 28.5664 59.3623 28.7019C59.7334 28.8374 60.1576 28.9081 60.6347 28.9081C61.1119 28.9081 61.536 28.8374 61.9072 28.7019C62.2783 28.5664 62.5964 28.3838 62.8556 28.1541C63.1148 27.9243 63.3151 27.6592 63.4506 27.3529C63.586 27.0525 63.6567 26.7285 63.6567 26.3927C63.6567 26.0569 63.586 25.7329 63.4506 25.4266C63.3151 25.1203 63.1148 24.8552 62.8556 24.6254C62.5964 24.3957 62.2783 24.2131 61.9072 24.0776C61.536 23.9421 61.1119 23.8714 60.6347 23.8714C60.1576 23.8714 59.7334 23.9421 59.3623 24.0776C58.9912 24.2131 58.6731 24.3957 58.4139 24.6254C58.1547 24.8552 57.9544 25.1262 57.8189 25.4266C57.6834 25.7329 57.6127 26.0569 57.6127 26.3927Z" fill="#808080"/>
<path d="M66.5963 18.7639H68.7111V30.6046H66.5963V18.7639Z" fill="#808080"/>
<path d="M69.4475 26.3927C69.4475 25.7859 69.5712 25.2204 69.8127 24.6961C70.0602 24.1659 70.4077 23.7065 70.8613 23.3118C71.3149 22.9171 71.8628 22.6049 72.5108 22.3751C73.1588 22.1454 73.8774 22.0334 74.6845 22.0334C75.4857 22.0334 76.2102 22.1454 76.8582 22.3751C77.5062 22.6049 78.0541 22.9171 78.5077 23.3118C78.9613 23.7065 79.3088 24.1659 79.5562 24.6961C79.8037 25.2263 79.9215 25.7918 79.9215 26.3927C79.9215 26.9936 79.7978 27.565 79.5562 28.0893C79.3088 28.6194 78.9613 29.0789 78.5077 29.4736C78.0541 29.8683 77.5062 30.1805 76.8582 30.4103C76.2102 30.64 75.4915 30.7519 74.6845 30.7519C73.8833 30.7519 73.1588 30.64 72.5108 30.4103C71.8628 30.1805 71.3149 29.8683 70.8613 29.4736C70.4077 29.0789 70.0543 28.6194 69.8127 28.0893C69.5712 27.565 69.4475 26.9995 69.4475 26.3927ZM71.6684 26.3927C71.6684 26.7285 71.7391 27.0525 71.8745 27.3529C72.01 27.6533 72.2103 27.9184 72.4695 28.1541C72.7287 28.3838 73.0468 28.5664 73.418 28.7019C73.7891 28.8374 74.2132 28.9081 74.6904 28.9081C75.1675 28.9081 75.5917 28.8374 75.9628 28.7019C76.3339 28.5664 76.652 28.3838 76.9112 28.1541C77.1704 27.9243 77.3707 27.6592 77.5062 27.3529C77.6417 27.0525 77.7124 26.7285 77.7124 26.3927C77.7124 26.0569 77.6417 25.7329 77.5062 25.4266C77.3707 25.1203 77.1704 24.8552 76.9112 24.6254C76.652 24.3957 76.3339 24.2131 75.9628 24.0776C75.5917 23.9421 75.1675 23.8714 74.6904 23.8714C74.2132 23.8714 73.7891 23.9421 73.418 24.0776C73.0468 24.2131 72.7287 24.3957 72.4695 24.6254C72.2103 24.8552 72.01 25.1262 71.8745 25.4266C71.7332 25.7329 71.6684 26.0569 71.6684 26.3927Z" fill="#808080"/>
<path d="M80.652 22.1807H82.7668V22.8935C83.297 22.5695 83.8095 22.3457 84.3102 22.222C84.8109 22.0982 85.3058 22.0334 85.7829 22.0334C86.4545 22.0334 87.0671 22.1395 87.6327 22.3574C88.1923 22.5695 88.6753 22.8935 89.0759 23.3294C89.3881 23.0938 89.6886 22.8876 89.989 22.7286C90.2894 22.5636 90.5899 22.434 90.8903 22.328C91.1908 22.2278 91.4971 22.1513 91.8034 22.1041C92.1097 22.057 92.4337 22.0334 92.7577 22.0334C93.447 22.0334 94.0714 22.1277 94.6369 22.3162C95.1965 22.5047 95.6796 22.7816 96.0743 23.1527C96.469 23.5238 96.7812 23.9892 96.9933 24.543C97.2112 25.0967 97.3173 25.7388 97.3173 26.4634V30.6047H95.2142V26.8109C95.2142 26.3515 95.1494 25.9391 95.0198 25.5739C94.8902 25.2086 94.7076 24.9023 94.472 24.6549C94.2363 24.4075 93.9536 24.2131 93.6296 24.0835C93.3056 23.9539 92.9462 23.8891 92.5574 23.8891C92.3454 23.8891 92.1274 23.9067 91.9035 23.948C91.6797 23.9892 91.4617 24.054 91.2497 24.1365C91.0376 24.2249 90.8373 24.3309 90.6547 24.4605C90.4662 24.5901 90.3071 24.7432 90.1716 24.92V30.6106H88.0686V26.8168C88.0686 26.3573 88.0038 25.945 87.8742 25.5798C87.7446 25.2145 87.562 24.9082 87.3263 24.6608C87.0907 24.4134 86.8079 24.219 86.4781 24.0894C86.1482 23.9598 85.7829 23.895 85.3882 23.895C85.1467 23.895 84.8993 23.9185 84.6578 23.9715C84.4104 24.0187 84.1747 24.0894 83.9509 24.1836C83.727 24.272 83.5149 24.3839 83.3147 24.5135C83.1144 24.6431 82.9376 24.7845 82.7845 24.9494V30.6223H80.6697V22.1807H80.652Z" fill="#808080"/>
<path d="M98.4542 18.7639H100.569V22.9759C100.758 22.8463 100.976 22.7285 101.223 22.6107C101.476 22.4987 101.747 22.3986 102.036 22.3102C102.325 22.2219 102.625 22.1571 102.937 22.104C103.244 22.0569 103.556 22.0275 103.862 22.0275C104.575 22.0275 105.229 22.1335 105.83 22.3397C106.425 22.5517 106.937 22.8463 107.367 23.2233C107.797 23.6062 108.127 24.0598 108.369 24.59C108.61 25.1202 108.728 25.7093 108.728 26.3514C108.728 27.0229 108.604 27.6297 108.351 28.1657C108.098 28.7077 107.75 29.1672 107.308 29.5501C106.861 29.933 106.336 30.2276 105.724 30.4337C105.111 30.6399 104.451 30.746 103.738 30.746C103.432 30.746 103.132 30.7283 102.837 30.687C102.537 30.6517 102.254 30.5987 101.983 30.528C101.712 30.4632 101.453 30.3807 101.211 30.2865C100.97 30.1922 100.758 30.0921 100.575 29.986V30.5928H98.4601V18.7639H98.4542ZM100.563 27.9596C100.775 28.1304 101.005 28.2777 101.241 28.3955C101.476 28.5133 101.724 28.6135 101.971 28.69C102.218 28.7666 102.466 28.8196 102.719 28.855C102.973 28.8903 103.214 28.908 103.456 28.908C103.939 28.908 104.375 28.8432 104.752 28.7136C105.129 28.584 105.447 28.4014 105.706 28.1775C105.965 27.9478 106.165 27.6827 106.301 27.3705C106.436 27.0642 106.507 26.7284 106.507 26.3631C106.507 26.0274 106.436 25.7093 106.301 25.4088C106.165 25.1084 105.971 24.8433 105.718 24.6194C105.464 24.3956 105.158 24.213 104.799 24.0834C104.439 23.9538 104.039 23.889 103.591 23.889C103.308 23.889 103.02 23.9184 102.737 23.9714C102.454 24.0245 102.177 24.101 101.912 24.2012C101.647 24.3013 101.4 24.425 101.17 24.5664C100.94 24.7078 100.74 24.8669 100.569 25.0436V27.9596H100.563Z" fill="#808080"/>
<path d="M110.336 21.0318C110.124 21.0318 109.935 21.0023 109.771 20.9434C109.6 20.8845 109.458 20.802 109.34 20.7019C109.223 20.6017 109.128 20.478 109.064 20.3425C108.999 20.2071 108.969 20.0657 108.969 19.9125C108.969 19.7535 108.999 19.6121 109.064 19.4707C109.128 19.3352 109.217 19.2174 109.34 19.1172C109.458 19.0171 109.606 18.9405 109.771 18.8757C109.941 18.8168 110.13 18.7874 110.336 18.7874C110.548 18.7874 110.743 18.8168 110.913 18.8757C111.084 18.9346 111.226 19.0171 111.343 19.1172C111.461 19.2174 111.555 19.3352 111.62 19.4707C111.685 19.6062 111.714 19.7535 111.714 19.9125C111.714 20.0657 111.685 20.2071 111.62 20.3425C111.555 20.478 111.467 20.5959 111.343 20.7019C111.226 20.802 111.078 20.8845 110.913 20.9434C110.743 21.0023 110.548 21.0318 110.336 21.0318ZM109.282 22.1805H111.396V30.5986H109.282V22.1805Z" fill="#808080"/>
<path d="M112.239 27.9479C112.239 27.5414 112.327 27.1762 112.504 26.8404C112.681 26.5046 112.946 26.2219 113.293 25.9803C113.647 25.7388 114.083 25.5562 114.613 25.4266C115.137 25.297 115.75 25.2322 116.451 25.2322C116.969 25.2322 117.517 25.2675 118.088 25.3441C118.66 25.4207 119.255 25.5385 119.862 25.6917C119.838 25.4266 119.756 25.1792 119.62 24.9553C119.485 24.7315 119.29 24.5371 119.043 24.3721C118.795 24.2072 118.501 24.0835 118.159 23.9892C117.812 23.9009 117.423 23.8537 116.987 23.8537C116.751 23.8537 116.486 23.8655 116.203 23.895C115.921 23.9244 115.62 23.9657 115.32 24.0246C115.013 24.0835 114.713 24.1542 114.418 24.2366C114.118 24.325 113.841 24.4251 113.588 24.543L112.946 22.811C113.264 22.6991 113.605 22.5931 113.971 22.4988C114.336 22.4046 114.707 22.3221 115.09 22.2514C115.473 22.1807 115.85 22.1277 116.233 22.0924C116.616 22.057 116.981 22.0334 117.34 22.0334C118.913 22.0334 120.085 22.434 120.851 23.2411C121.617 24.0422 122 25.2793 122 26.9405V30.6106H119.885V29.8212C119.667 29.9508 119.426 30.0686 119.166 30.1864C118.907 30.2983 118.624 30.3985 118.318 30.4869C118.012 30.5752 117.688 30.64 117.334 30.693C116.987 30.7402 116.616 30.7696 116.227 30.7696C115.573 30.7696 114.996 30.6989 114.495 30.5575C114 30.4162 113.582 30.2159 113.252 29.9626C112.916 29.7093 112.669 29.4147 112.498 29.073C112.321 28.7196 112.239 28.3485 112.239 27.9479ZM114.46 27.8772C114.46 28.0127 114.495 28.1482 114.566 28.2719C114.636 28.3956 114.748 28.5075 114.907 28.6077C115.066 28.7078 115.267 28.7844 115.508 28.8433C115.756 28.9022 116.05 28.9317 116.398 28.9317C116.769 28.9317 117.128 28.8963 117.476 28.8315C117.823 28.7667 118.147 28.6784 118.448 28.5664C118.748 28.4545 119.019 28.3308 119.261 28.1894C119.502 28.048 119.703 27.9008 119.867 27.7476V27.3765C119.543 27.2881 119.225 27.2115 118.907 27.1467C118.589 27.0878 118.289 27.0348 118 26.9995C117.711 26.9641 117.44 26.9405 117.187 26.9229C116.934 26.9111 116.71 26.8993 116.521 26.8993C116.127 26.8993 115.797 26.9229 115.538 26.9759C115.278 27.0289 115.066 27.0996 114.901 27.188C114.742 27.2763 114.625 27.3824 114.56 27.5002C114.495 27.6239 114.46 27.7476 114.46 27.8772Z" fill="#808080"/>
<path d="M37.6309 18.9994H26.2261C26.1967 14.923 22.8978 11.6476 18.8213 11.6417C14.7448 11.6359 11.44 14.9171 11.4047 18.9994H0.00585938V15.2293C0.188476 14.8346 0.518365 14.6873 0.936617 14.6225C2.45646 14.3751 3.97631 14.1041 5.49026 13.8214C5.61986 13.7978 5.77892 13.68 5.83193 13.5622C6.3032 12.4959 6.87462 11.4886 7.56385 10.546C7.64632 10.44 7.6581 10.222 7.61098 10.0924C7.10436 8.66685 6.57418 7.24126 6.05579 5.82156C5.77891 5.06164 5.86728 4.80833 6.5624 4.40775C8.47104 3.30616 10.3738 2.20457 12.2824 1.10886C12.9422 0.725956 13.2191 0.773084 13.708 1.35628C14.6859 2.51678 15.6638 3.68318 16.624 4.85546C16.7831 5.04986 16.9421 5.07931 17.1895 5.07342C18.2735 5.04986 19.3633 5.04986 20.4472 5.07342C20.6887 5.07931 20.8478 5.04986 21.0127 4.85546C21.9788 3.68318 22.9567 2.52267 23.9287 1.35628C24.4176 0.773084 24.6886 0.725956 25.3543 1.10886C27.2806 2.22224 29.2128 3.33561 31.1391 4.44899C31.7459 4.79655 31.8519 5.09109 31.6045 5.75676C31.0861 7.19414 30.5618 8.63151 30.0258 10.063C29.9433 10.281 29.9786 10.4282 30.0964 10.6285C30.6679 11.5828 31.2157 12.543 31.7577 13.515C31.8696 13.7153 31.9815 13.8214 32.2172 13.8567C33.7606 14.1159 35.304 14.3869 36.8474 14.6579C37.3952 14.7521 37.6309 15.0349 37.6309 15.5886C37.6309 16.7197 37.6309 17.8566 37.6309 18.9994Z" fill="#FFCD00"/>
<path d="M37.6309 18.9995C37.6309 20.1718 37.6309 21.35 37.6309 22.5223C37.6309 23.0819 37.3894 23.3588 36.8474 23.453C35.2922 23.7299 33.737 23.9891 32.1877 24.2777C32.0405 24.3072 31.8755 24.4427 31.793 24.5782C31.2099 25.5561 30.662 26.5457 30.0847 27.5236C29.9787 27.7003 29.9492 27.8299 30.0199 28.0243C30.0965 28.2246 30.1672 28.419 30.2437 28.6252H7.39894C7.46963 28.4367 7.53443 28.2482 7.60512 28.0597C7.68759 27.8417 7.65224 27.6944 7.53443 27.4942C6.96301 26.5398 6.41516 25.5737 5.8732 24.6076C5.76128 24.4073 5.64935 24.3013 5.41371 24.266C3.8703 24.0068 2.32689 23.7299 0.783485 23.4648C0.41236 23.4 0.164944 23.2056 0 22.8816V19.0054H11.4047V19.0407C11.3871 23.129 14.6859 26.4397 18.7919 26.4691C22.8919 26.4927 26.238 23.1585 26.2262 19.0525V19.0054H37.6309V18.9995Z" fill="#003087"/>
<path d="M31.0685 33.7032C29.1598 34.8048 27.2571 35.9064 25.3484 37.0021C24.6827 37.385 24.4118 37.3379 23.9228 36.7547C22.9449 35.5942 21.9671 34.4278 21.0068 33.2555C20.8478 33.0611 20.6828 33.0317 20.4413 33.0376C19.3574 33.0611 18.2676 33.0611 17.1837 33.0376C16.9421 33.0317 16.7831 33.0611 16.6181 33.2555C15.652 34.4278 14.68 35.5883 13.7022 36.7547C13.2132 37.3379 12.9422 37.385 12.2766 37.0021C10.3502 35.8888 8.41804 34.7754 6.49173 33.662C5.87907 33.3085 5.77893 33.0258 6.02635 32.3542C6.47994 31.1054 6.93354 29.8565 7.39303 28.6135H30.2319C30.6855 29.8329 31.1332 31.0582 31.581 32.2835C31.8578 33.0494 31.7695 33.2968 31.0685 33.7032Z" fill="#C8102E"/>
<path d="M20.2293 3.80109H17.4017C17.3486 3.80109 17.2956 3.77752 17.2603 3.7304L14.8509 0.767286C14.8097 0.720159 14.7979 0.65536 14.8215 0.59056C14.8391 0.531651 14.8921 0.484524 14.9511 0.472743C17.5136 -0.157581 20.1174 -0.157581 22.6799 0.472743C22.7388 0.490415 22.7918 0.531651 22.8095 0.59056C22.8272 0.649469 22.8154 0.714268 22.78 0.767286L20.3707 3.7304C20.3412 3.77752 20.2882 3.80109 20.2293 3.80109ZM17.49 3.43585H20.1468L22.3146 0.767286C19.9936 0.242999 17.6432 0.242999 15.3281 0.767286L17.49 3.43585Z" fill="#B3B3B3"/>
<path d="M19.6166 3.05303H18.0202C17.9672 3.05303 17.9141 3.02947 17.8788 2.98234L16.5239 1.31522C16.4826 1.2622 16.4709 1.1974 16.4944 1.1326C16.518 1.0737 16.571 1.02657 16.6358 1.01479C17.219 0.914642 17.8081 0.855733 18.3854 0.83806C18.4325 0.832169 18.4855 0.855733 18.5209 0.891078C18.5562 0.926423 18.5798 0.973551 18.5798 1.02068V2.299C18.5798 2.37558 18.5268 2.44627 18.4561 2.47572C18.3795 2.49929 18.297 2.47572 18.2499 2.41092L17.6785 1.63333C17.6196 1.55086 17.6373 1.43893 17.7197 1.37413C17.8022 1.30933 17.9141 1.33289 17.9789 1.41537L18.2205 1.73937V1.21508C17.8258 1.23275 17.4252 1.27399 17.0246 1.327L18.1262 2.68191H19.5459L20.6475 1.327C20.2469 1.2681 19.8463 1.23275 19.4517 1.21508V1.76882L19.6814 1.47428C19.7462 1.3918 19.8581 1.38002 19.9406 1.44482C20.0231 1.50962 20.0348 1.62155 19.97 1.70402L19.4104 2.41682C19.3633 2.47572 19.2808 2.50518 19.2042 2.47572C19.1277 2.45216 19.0805 2.38147 19.0805 2.30489V1.02657C19.0805 0.979442 19.0982 0.926423 19.1394 0.896969C19.1748 0.861624 19.2219 0.843952 19.2749 0.843952C19.8463 0.861624 20.4354 0.920533 21.0245 1.02068C21.0893 1.03246 21.1423 1.0737 21.1659 1.1385C21.1895 1.1974 21.1777 1.26809 21.1364 1.32111L19.7815 2.98823C19.7226 3.02947 19.6696 3.05303 19.6166 3.05303Z" fill="#B3B3B3"/>
<path d="M6.32088 10.1986L4.90707 12.6492C4.87762 12.6964 4.83049 12.7317 4.77748 12.7376L1.00732 13.3385C0.942517 13.3502 0.883607 13.3267 0.842371 13.2796C0.801135 13.2324 0.783463 13.1676 0.801136 13.1087C1.53749 10.5756 2.83938 8.31944 4.66555 6.4108C4.70679 6.36367 4.77158 6.346 4.83638 6.35778C4.89529 6.36956 4.94831 6.4108 4.97187 6.46971L6.33267 10.0337C6.35034 10.0926 6.35034 10.1515 6.32088 10.1986ZM4.6302 12.39L5.95565 10.0926L4.73035 6.88207C3.11625 8.62577 1.93807 10.664 1.23706 12.932L4.6302 12.39Z" fill="#B3B3B3"/>
<path d="M5.3607 10.3636L4.56543 11.742C4.53597 11.7891 4.48885 11.8245 4.43583 11.8304L2.30922 12.172C2.24442 12.1838 2.17962 12.1603 2.13839 12.1073C2.09715 12.0542 2.08537 11.9894 2.10893 11.9246C2.31511 11.3709 2.56253 10.8289 2.83351 10.3223C2.85708 10.2752 2.89831 10.2457 2.94544 10.234C2.99257 10.2222 3.04558 10.2281 3.08682 10.2516L4.1943 10.8878C4.26499 10.9291 4.30034 11.0057 4.28267 11.0822C4.26499 11.1588 4.20019 11.2177 4.12361 11.2295L3.1634 11.3355C3.06326 11.3473 2.969 11.2766 2.96311 11.1706C2.95133 11.0705 3.02202 10.9762 3.12806 10.9703L3.52863 10.9291L3.07504 10.6699C2.89242 11.0233 2.72748 11.3886 2.57431 11.7656L4.29445 11.4887L5.00135 10.2575L4.37692 8.63164C4.12361 8.94974 3.89387 9.27963 3.6818 9.60952L4.15896 9.88639L4.01758 9.53883C3.98223 9.44458 4.02347 9.33854 4.11772 9.2973C4.21198 9.26196 4.31801 9.3032 4.35925 9.39745L4.69503 10.2398C4.72448 10.3105 4.70681 10.3989 4.64201 10.446C4.5831 10.499 4.49474 10.5049 4.42994 10.4637L3.32834 9.82748C3.28711 9.80392 3.25176 9.76268 3.23998 9.71556C3.2282 9.66843 3.23409 9.61541 3.26355 9.57418C3.56398 9.08523 3.91154 8.60807 4.28856 8.14858C4.32979 8.09557 4.39459 8.072 4.45939 8.08378C4.52419 8.09557 4.57721 8.1368 4.60077 8.2016L5.36659 10.2104C5.39604 10.2575 5.39015 10.3105 5.3607 10.3636Z" fill="#B3B3B3"/>
<path d="M4.90707 25.4501L6.32088 27.9007C6.35034 27.9478 6.35034 28.0067 6.33267 28.0597L4.97187 31.6237C4.94831 31.6826 4.90118 31.7239 4.83638 31.7356C4.77748 31.7474 4.71268 31.7297 4.66555 31.6826C2.83938 29.774 1.53749 27.5237 0.801136 24.9847C0.783463 24.9258 0.795244 24.861 0.842371 24.8139C0.883607 24.7667 0.948407 24.7432 1.00732 24.755L4.77748 25.3558C4.83049 25.3676 4.87762 25.403 4.90707 25.4501ZM5.95565 28.0067L4.6302 25.7093L1.23706 25.1673C1.94396 27.4412 3.11625 29.4735 4.73035 31.2172L5.95565 28.0067Z" fill="#B3B3B3"/>
<path d="M4.5654 26.3573L5.36066 27.7357C5.39012 27.7829 5.39012 27.8418 5.37245 27.8948L4.60663 29.9036C4.58307 29.9625 4.53005 30.0096 4.46525 30.0214C4.40045 30.0332 4.33565 30.0096 4.29442 29.9566C3.9174 29.4971 3.56984 29.0199 3.2694 28.531C3.23995 28.4898 3.23406 28.4367 3.24584 28.3896C3.25762 28.3425 3.28708 28.3012 3.3342 28.2777L4.44169 27.6415C4.51238 27.6002 4.59485 27.612 4.65376 27.665C4.71267 27.7181 4.73034 27.8005 4.70089 27.8771L4.31209 28.7607C4.27085 28.855 4.16482 28.8962 4.07056 28.855C3.97631 28.8138 3.93507 28.7077 3.97631 28.6135L4.14125 28.2423L3.68766 28.5015C3.89973 28.8373 4.13536 29.1613 4.38278 29.4794L5.00721 27.8535L4.30031 26.6223L2.58017 26.3455C2.73333 26.7225 2.89828 27.0877 3.0809 27.4412L3.55806 27.1643L3.18693 27.1113C3.08679 27.0995 3.0161 27.0053 3.03377 26.9051C3.04555 26.805 3.13981 26.7343 3.23995 26.7519L4.13536 26.8815C4.21195 26.8933 4.27674 26.9522 4.28852 27.0288C4.3062 27.1054 4.26496 27.182 4.20016 27.2232L3.09268 27.8594C3.05144 27.883 2.99842 27.8889 2.9513 27.8771C2.90417 27.8653 2.86293 27.83 2.83937 27.7887C2.56839 27.2821 2.32686 26.7402 2.11479 26.1864C2.09123 26.1275 2.10301 26.0568 2.14425 26.0038C2.18548 25.9508 2.25028 25.9272 2.31508 25.939L4.44169 26.2807C4.48882 26.2748 4.53594 26.3101 4.5654 26.3573Z" fill="#B3B3B3"/>
<path d="M17.4017 34.2981H20.2293C20.2823 34.2981 20.3353 34.3217 20.3707 34.3688L22.78 37.3319C22.8213 37.379 22.8331 37.4438 22.8095 37.5086C22.7918 37.5675 22.7388 37.6147 22.6799 37.6264C20.1174 38.2568 17.5136 38.2568 14.9511 37.6264C14.8922 37.6088 14.8391 37.5675 14.8215 37.5086C14.8038 37.4497 14.8156 37.3849 14.8509 37.3319L17.2603 34.3688C17.2956 34.3217 17.3487 34.2981 17.4017 34.2981ZM20.1468 34.6633H17.49L15.3222 37.3319C17.6432 37.8562 19.9937 37.8562 22.3088 37.3319L20.1468 34.6633Z" fill="#B3B3B3"/>
<path d="M18.0202 35.0464H19.6166C19.6696 35.0464 19.7226 35.07 19.758 35.1171L21.1129 36.7842C21.1541 36.8372 21.1659 36.902 21.1423 36.9668C21.1188 37.0257 21.0658 37.0728 21.001 37.0846C20.4178 37.1848 19.8287 37.2437 19.2514 37.2614C19.2042 37.2672 19.1512 37.2437 19.1159 37.2083C19.0805 37.173 19.057 37.1259 19.057 37.0787V35.8004C19.057 35.7238 19.11 35.6531 19.1807 35.6237C19.2573 35.6001 19.3397 35.6237 19.3869 35.6885L19.9583 36.4661C20.0172 36.5486 19.9995 36.6605 19.917 36.7253C19.8346 36.7842 19.7226 36.7665 19.6578 36.6841L19.4163 36.3601V36.8843C19.811 36.8667 20.2116 36.8254 20.6122 36.7724L19.5106 35.4175H18.0909L16.9893 36.7724C17.3899 36.8313 17.7904 36.8667 18.1851 36.8843V36.3306L17.9554 36.6251C17.8906 36.7076 17.7786 36.7194 17.6962 36.6546C17.6137 36.5898 17.6019 36.4779 17.6667 36.3954L18.2264 35.6826C18.2735 35.6237 18.356 35.5942 18.4325 35.6237C18.5091 35.6473 18.5562 35.7179 18.5562 35.7945V37.0728C18.5562 37.12 18.5386 37.173 18.4973 37.2024C18.462 37.2378 18.4149 37.2555 18.3618 37.2555C17.7904 37.2378 17.2013 37.1789 16.6123 37.0787C16.5475 37.067 16.4944 37.0257 16.4709 36.9609C16.4473 36.902 16.4591 36.8313 16.5003 36.7783L17.8552 35.1112C17.9141 35.07 17.9672 35.0464 18.0202 35.0464Z" fill="#B3B3B3"/>
<path d="M31.3159 27.9007L32.7297 25.45C32.7591 25.4029 32.8063 25.3676 32.8593 25.3617L36.6294 24.7608C36.6942 24.749 36.7531 24.7726 36.7944 24.8197C36.8356 24.8669 36.8533 24.9317 36.8356 24.9906C36.0993 27.5236 34.7974 29.7798 32.9712 31.6885C32.93 31.7356 32.8652 31.7533 32.8004 31.7415C32.7415 31.7297 32.6884 31.6885 32.6649 31.6296L31.3041 28.0656C31.2805 28.0067 31.2864 27.9478 31.3159 27.9007ZM33.0066 25.7092L31.6811 28.0067L32.9064 31.2172C34.5205 29.4735 35.6987 27.4353 36.3997 25.1673L33.0066 25.7092Z" fill="#B3B3B3"/>
<path d="M32.2702 27.7358L33.0655 26.3573C33.095 26.3102 33.1421 26.2749 33.1951 26.269L35.3217 25.9273C35.3865 25.9155 35.4513 25.9391 35.4926 25.9921C35.5338 26.0451 35.5456 26.1099 35.522 26.1747C35.3158 26.7284 35.0684 27.2704 34.7974 27.777C34.7739 27.8242 34.7326 27.8536 34.6855 27.8654C34.6384 27.8772 34.5854 27.8713 34.5441 27.8477L33.4366 27.2115C33.3659 27.1703 33.3306 27.0937 33.3483 27.0171C33.3659 26.9405 33.4307 26.8816 33.5073 26.8698L34.4675 26.7638C34.5677 26.752 34.6619 26.8227 34.6678 26.9287C34.6796 27.0289 34.6089 27.1231 34.5029 27.129L34.1023 27.1703L34.5559 27.4295C34.7385 27.076 34.9035 26.7108 35.0566 26.3338L33.3424 26.6165L32.6355 27.8477L33.2599 29.4736C33.5132 29.1555 33.743 28.8256 33.955 28.4957L33.4779 28.2188L33.6193 28.5664C33.6546 28.6607 33.6134 28.7667 33.5191 28.8079C33.4249 28.8433 33.3188 28.802 33.2776 28.7078L32.9418 27.8654C32.9123 27.7947 32.93 27.7063 32.9948 27.6592C33.0537 27.6062 33.1421 27.6003 33.2069 27.6415L34.3144 28.2777C34.3556 28.3013 34.391 28.3425 34.4027 28.3897C34.4145 28.4368 34.4086 28.4898 34.3792 28.5311C34.0787 29.02 33.7312 29.4972 33.3542 29.9566C33.3129 30.0097 33.2481 30.0332 33.1833 30.0214C33.1185 30.0097 33.0655 29.9684 33.0419 29.9036L32.2761 27.8948C32.2408 27.8418 32.2467 27.7888 32.2702 27.7358Z" fill="#B3B3B3"/>
<path d="M32.7296 12.6492L31.3158 10.1986C31.2864 10.1515 31.2864 10.0926 31.3041 10.0395L32.6648 6.47557C32.6884 6.41666 32.7355 6.37542 32.8003 6.36364C32.8592 6.35186 32.924 6.36953 32.9712 6.41666C34.7973 8.3253 36.0992 10.5756 36.8356 13.1146C36.8533 13.1735 36.8415 13.2383 36.7943 13.2854C36.7531 13.3325 36.6883 13.3561 36.6294 13.3443L32.8592 12.7435C32.8062 12.7317 32.7591 12.6963 32.7296 12.6492ZM31.6752 10.0926L33.0006 12.39L36.3938 12.932C35.6869 10.6581 34.5146 8.62574 32.9005 6.88204L31.6752 10.0926Z" fill="#B3B3B3"/>
<path d="M33.0714 11.742L32.2762 10.3636C32.2467 10.3165 32.2467 10.2575 32.2644 10.2045L33.0302 8.19574C33.0538 8.13683 33.1068 8.08971 33.1716 8.07792C33.2364 8.06614 33.3012 8.08971 33.3424 8.14272C33.7194 8.60221 34.067 9.07937 34.3674 9.56832C34.3969 9.60955 34.4028 9.66257 34.391 9.7097C34.3792 9.75682 34.3497 9.79806 34.3026 9.82162L33.1951 10.4578C33.1244 10.4991 33.042 10.4873 32.9831 10.4343C32.9242 10.3813 32.9065 10.2988 32.9359 10.2222L33.3247 9.33857C33.366 9.24432 33.472 9.20308 33.5663 9.24432C33.6605 9.28555 33.7018 9.39159 33.6605 9.48584L33.4956 9.85697L33.9492 9.59777C33.7371 9.26199 33.5015 8.93799 33.254 8.61989L32.6355 10.2517L33.3424 11.4828L35.0625 11.7597C34.9094 11.3827 34.7444 11.0175 34.5618 10.664L34.0847 10.9409L34.4558 10.9939C34.5559 11.0057 34.6266 11.0999 34.6089 11.2001C34.5972 11.3002 34.5029 11.3709 34.4028 11.3533L33.5074 11.2237C33.4308 11.2119 33.366 11.153 33.3542 11.0764C33.3365 10.9998 33.3778 10.9232 33.4426 10.882L34.55 10.2458C34.5913 10.2222 34.6443 10.2163 34.6914 10.2281C34.7385 10.2399 34.7798 10.2752 34.8033 10.3165C35.0743 10.8231 35.3159 11.365 35.5279 11.9188C35.5515 11.9777 35.5397 12.0484 35.4985 12.1014C35.4572 12.1544 35.3924 12.178 35.3276 12.1662L33.201 11.8245C33.1421 11.8245 33.095 11.7892 33.0714 11.742Z" fill="#B3B3B3"/>
</svg>
