<svg width="122" height="39" viewBox="0 0 122 39" fill="none" xmlns="http://www.w3.org/2000/svg">
<path d="M48.0224 5.54382H50.42L55.816 16.6952H53.442L52.5525 14.8161H46.0372L45.1712 16.6952H42.7854L48.0224 5.54382ZM51.6512 12.9545L49.2418 7.88839L46.8913 12.9545H51.6512Z" fill="#E6E9EA"/>
<path d="M56.087 5.54382H61.9661C62.8202 5.54382 63.5625 5.63808 64.1928 5.82069C64.8231 6.00331 65.3415 6.27429 65.7539 6.62185C66.1663 6.96941 66.4785 7.39945 66.6788 7.90017C66.8791 8.40679 66.9792 8.97231 66.9792 9.60853C66.9792 10.2035 66.8791 10.7514 66.6788 11.258C66.4785 11.7646 66.1722 12.2005 65.7598 12.5657C65.3474 12.9369 64.829 13.2196 64.1987 13.4317C63.5684 13.6379 62.8261 13.7439 61.972 13.7439L58.3373 13.738V16.7011H56.0752V5.54382H56.087ZM62.025 11.7823C62.455 11.7823 62.8261 11.7292 63.1501 11.6291C63.4682 11.529 63.7392 11.3817 63.9572 11.1932C64.1751 11.0047 64.3342 10.7749 64.4402 10.5098C64.5463 10.2388 64.5993 9.94431 64.5993 9.61442C64.5993 8.95464 64.3813 8.43624 63.9513 8.07101C63.5213 7.69988 62.8792 7.51727 62.0191 7.51727H58.3432V11.7823H62.025Z" fill="#E6E9EA"/>
<path d="M67.7039 5.54382H69.9777V16.6952H67.7039V5.54382Z" fill="#E6E9EA"/>
<path d="M43.5394 25.0605C43.5394 24.2652 43.6867 23.5229 43.9871 22.8396C44.2876 22.1504 44.7235 21.5554 45.289 21.0488C45.8545 20.5421 46.5497 20.1416 47.3744 19.8529C48.1932 19.5643 49.124 19.417 50.1608 19.417C51.068 19.417 51.9045 19.5112 52.6644 19.6939C53.4243 19.8765 54.1312 20.1592 54.7792 20.5304L53.7365 22.2446C53.5421 22.115 53.3183 22.0031 53.065 21.9029C52.8117 21.8028 52.5407 21.7203 52.252 21.6496C51.9634 21.5789 51.6688 21.5259 51.3625 21.4906C51.0562 21.4552 50.7499 21.4317 50.4553 21.4317C49.7307 21.4317 49.0886 21.52 48.5231 21.6968C47.9576 21.8735 47.4804 22.1268 47.0916 22.4449C46.7028 22.7689 46.4083 23.1518 46.208 23.5936C46.0077 24.0413 45.9076 24.5303 45.9076 25.0605C45.9076 25.6142 46.0136 26.1208 46.2198 26.5803C46.4318 27.0398 46.7323 27.4404 47.127 27.7761C47.5217 28.1119 48.0106 28.3711 48.582 28.5596C49.1534 28.7481 49.8014 28.8424 50.526 28.8424C50.8559 28.8424 51.1799 28.8188 51.5039 28.7717C51.8279 28.7246 52.1401 28.6598 52.4405 28.5773C52.741 28.4948 53.0355 28.3947 53.3124 28.2769C53.5952 28.159 53.8544 28.0353 54.0959 27.894L55.1386 29.6082C54.5318 29.997 53.8249 30.3033 53.0237 30.5272C52.2226 30.751 51.3743 30.8571 50.4789 30.8571C49.3302 30.8571 48.3287 30.7098 47.4627 30.4094C46.5968 30.1148 45.8722 29.7025 45.2949 29.1841C44.7117 28.6657 44.2758 28.0471 43.9871 27.3402C43.6867 26.6333 43.5394 25.8734 43.5394 25.0605Z" fill="#FDFDFD"/>
<path d="M55.3918 26.4921C55.3918 25.8853 55.5156 25.3198 55.7571 24.7955C56.0045 24.2653 56.3521 23.8058 56.8057 23.4111C57.2593 23.0164 57.8071 22.7042 58.4551 22.4745C59.0972 22.2447 59.8218 22.1328 60.6288 22.1328C61.43 22.1328 62.1546 22.2447 62.8026 22.4745C63.4447 22.7042 63.9984 23.0164 64.452 23.4111C64.9056 23.8058 65.2532 24.2653 65.5006 24.7955C65.748 25.3257 65.8658 25.8912 65.8658 26.4921C65.8658 27.0929 65.7421 27.6643 65.5006 28.1886C65.2532 28.7188 64.9056 29.1783 64.452 29.573C63.9984 29.9677 63.4506 30.2799 62.8026 30.5096C62.1605 30.7394 61.4359 30.8513 60.6288 30.8513C59.8218 30.8513 59.1031 30.7394 58.4551 30.5096C57.813 30.2799 57.2593 29.9677 56.8057 29.573C56.3521 29.1783 56.0045 28.7188 55.7571 28.1886C55.5156 27.6643 55.3918 27.0988 55.3918 26.4921ZM57.6127 26.4921C57.6127 26.8278 57.6834 27.1518 57.8189 27.4523C57.9544 27.7527 58.1547 28.0178 58.4139 28.2534C58.6731 28.4832 58.9912 28.6658 59.3623 28.8013C59.7334 28.9368 60.1576 29.0075 60.6347 29.0075C61.1119 29.0075 61.536 28.9368 61.9072 28.8013C62.2783 28.6658 62.5964 28.4832 62.8556 28.2534C63.1148 28.0237 63.3151 27.7586 63.4506 27.4523C63.586 27.1518 63.6567 26.8278 63.6567 26.4921C63.6567 26.1563 63.586 25.8323 63.4506 25.526C63.3151 25.2196 63.1148 24.9545 62.8556 24.7248C62.5964 24.4951 62.2783 24.3124 61.9072 24.1769C61.536 24.0415 61.1119 23.9708 60.6347 23.9708C60.1576 23.9708 59.7334 24.0415 59.3623 24.1769C58.9912 24.3124 58.6731 24.4951 58.4139 24.7248C58.1547 24.9545 57.9544 25.2255 57.8189 25.526C57.6834 25.8323 57.6127 26.1563 57.6127 26.4921Z" fill="#FDFDFD"/>
<path d="M66.5963 18.8633H68.7111V30.7039H66.5963V18.8633Z" fill="#FDFDFD"/>
<path d="M69.4475 26.4921C69.4475 25.8853 69.5712 25.3198 69.8127 24.7955C70.0602 24.2653 70.4077 23.8058 70.8613 23.4111C71.3149 23.0164 71.8628 22.7042 72.5108 22.4745C73.1588 22.2447 73.8774 22.1328 74.6845 22.1328C75.4857 22.1328 76.2102 22.2447 76.8582 22.4745C77.5062 22.7042 78.0541 23.0164 78.5077 23.4111C78.9613 23.8058 79.3088 24.2653 79.5562 24.7955C79.8037 25.3257 79.9215 25.8912 79.9215 26.4921C79.9215 27.0929 79.7978 27.6643 79.5562 28.1886C79.3088 28.7188 78.9613 29.1783 78.5077 29.573C78.0541 29.9677 77.5062 30.2799 76.8582 30.5096C76.2102 30.7394 75.4915 30.8513 74.6845 30.8513C73.8833 30.8513 73.1588 30.7394 72.5108 30.5096C71.8628 30.2799 71.3149 29.9677 70.8613 29.573C70.4077 29.1783 70.0543 28.7188 69.8127 28.1886C69.5712 27.6643 69.4475 27.0988 69.4475 26.4921ZM71.6684 26.4921C71.6684 26.8278 71.7391 27.1518 71.8745 27.4523C72.01 27.7527 72.2103 28.0178 72.4695 28.2534C72.7287 28.4832 73.0468 28.6658 73.418 28.8013C73.7891 28.9368 74.2132 29.0075 74.6904 29.0075C75.1675 29.0075 75.5917 28.9368 75.9628 28.8013C76.3339 28.6658 76.652 28.4832 76.9112 28.2534C77.1704 28.0237 77.3707 27.7586 77.5062 27.4523C77.6417 27.1518 77.7124 26.8278 77.7124 26.4921C77.7124 26.1563 77.6417 25.8323 77.5062 25.526C77.3707 25.2196 77.1704 24.9545 76.9112 24.7248C76.652 24.4951 76.3339 24.3124 75.9628 24.1769C75.5917 24.0415 75.1675 23.9708 74.6904 23.9708C74.2132 23.9708 73.7891 24.0415 73.418 24.1769C73.0468 24.3124 72.7287 24.4951 72.4695 24.7248C72.2103 24.9545 72.01 25.2255 71.8745 25.526C71.7332 25.8323 71.6684 26.1563 71.6684 26.4921Z" fill="#FDFDFD"/>
<path d="M80.652 22.2801H82.7668V22.9929C83.297 22.6689 83.8095 22.445 84.3102 22.3213C84.8109 22.1976 85.3058 22.1328 85.7829 22.1328C86.4545 22.1328 87.0671 22.2388 87.6327 22.4568C88.1923 22.6689 88.6753 22.9929 89.0759 23.4288C89.3881 23.1932 89.6886 22.987 89.989 22.8279C90.2894 22.663 90.5899 22.5334 90.8903 22.4274C91.1908 22.3272 91.4971 22.2506 91.8034 22.2035C92.1097 22.1564 92.4337 22.1328 92.7577 22.1328C93.447 22.1328 94.0714 22.2271 94.6369 22.4156C95.1965 22.6041 95.6796 22.881 96.0743 23.2521C96.469 23.6232 96.7812 24.0886 96.9933 24.6423C97.2112 25.1961 97.3173 25.8382 97.3173 26.5628V30.704H95.2142V26.9103C95.2142 26.4508 95.1494 26.0385 95.0198 25.6732C94.8902 25.308 94.7076 25.0017 94.472 24.7543C94.2363 24.5068 93.9536 24.3124 93.6296 24.1828C93.3056 24.0532 92.9462 23.9884 92.5574 23.9884C92.3454 23.9884 92.1274 24.0061 91.9035 24.0473C91.6797 24.0886 91.4617 24.1534 91.2497 24.2359C91.0376 24.3242 90.8373 24.4303 90.6547 24.5599C90.4662 24.6895 90.3071 24.8426 90.1716 25.0193V30.7099H88.0686V26.9162C88.0686 26.4567 88.0038 26.0444 87.8742 25.6791C87.7446 25.3139 87.562 25.0076 87.3263 24.7601C87.0907 24.5127 86.8079 24.3183 86.4781 24.1887C86.1482 24.0591 85.7829 23.9943 85.3882 23.9943C85.1467 23.9943 84.8993 24.0179 84.6578 24.0709C84.4104 24.118 84.1747 24.1887 83.9509 24.283C83.727 24.3713 83.5149 24.4833 83.3147 24.6129C83.1144 24.7425 82.9376 24.8839 82.7845 25.0488V30.7217H80.6697V22.2801H80.652Z" fill="#FDFDFD"/>
<path d="M98.4542 18.8633H100.569V23.0753C100.758 22.9457 100.976 22.8278 101.223 22.71C101.476 22.5981 101.747 22.498 102.036 22.4096C102.325 22.3212 102.625 22.2564 102.937 22.2034C103.244 22.1563 103.556 22.1268 103.862 22.1268C104.575 22.1268 105.229 22.2329 105.83 22.439C106.425 22.6511 106.937 22.9457 107.367 23.3227C107.797 23.7056 108.127 24.1592 108.369 24.6894C108.61 25.2195 108.728 25.8086 108.728 26.4507C108.728 27.1223 108.604 27.729 108.351 28.2651C108.098 28.8071 107.75 29.2666 107.308 29.6495C106.861 30.0324 106.336 30.3269 105.724 30.5331C105.111 30.7393 104.451 30.8453 103.738 30.8453C103.432 30.8453 103.132 30.8276 102.837 30.7864C102.537 30.7511 102.254 30.698 101.983 30.6274C101.712 30.5626 101.453 30.4801 101.211 30.3858C100.97 30.2916 100.758 30.1914 100.575 30.0854V30.6922H98.4601V18.8633H98.4542ZM100.563 28.0589C100.775 28.2298 101.005 28.377 101.241 28.4949C101.476 28.6127 101.724 28.7128 101.971 28.7894C102.218 28.866 102.466 28.919 102.719 28.9543C102.973 28.9897 103.214 29.0074 103.456 29.0074C103.939 29.0074 104.375 28.9426 104.752 28.813C105.129 28.6834 105.447 28.5008 105.706 28.2769C105.965 28.0472 106.165 27.7821 106.301 27.4698C106.436 27.1635 106.507 26.8277 106.507 26.4625C106.507 26.1267 106.436 25.8086 106.301 25.5082C106.165 25.2078 105.971 24.9427 105.718 24.7188C105.464 24.495 105.158 24.3123 104.799 24.1827C104.439 24.0531 104.039 23.9883 103.591 23.9883C103.308 23.9883 103.02 24.0178 102.737 24.0708C102.454 24.1238 102.177 24.2004 101.912 24.3006C101.647 24.4007 101.4 24.5244 101.17 24.6658C100.94 24.8072 100.74 24.9662 100.569 25.143V28.0589H100.563Z" fill="#FDFDFD"/>
<path d="M110.336 21.1311C110.124 21.1311 109.935 21.1017 109.771 21.0428C109.6 20.9839 109.458 20.9014 109.34 20.8013C109.223 20.7011 109.128 20.5774 109.064 20.4419C108.999 20.3064 108.969 20.165 108.969 20.0119C108.969 19.8528 108.999 19.7114 109.064 19.5701C109.128 19.4346 109.217 19.3168 109.34 19.2166C109.458 19.1165 109.606 19.0399 109.771 18.9751C109.941 18.9162 110.13 18.8867 110.336 18.8867C110.548 18.8867 110.743 18.9162 110.913 18.9751C111.084 19.034 111.226 19.1165 111.343 19.2166C111.461 19.3168 111.555 19.4346 111.62 19.5701C111.685 19.7056 111.714 19.8528 111.714 20.0119C111.714 20.165 111.685 20.3064 111.62 20.4419C111.555 20.5774 111.467 20.6952 111.343 20.8013C111.226 20.9014 111.078 20.9839 110.913 21.0428C110.743 21.1017 110.548 21.1311 110.336 21.1311ZM109.282 22.2799H111.396V30.6979H109.282V22.2799Z" fill="#FDFDFD"/>
<path d="M112.239 28.0472C112.239 27.6408 112.327 27.2755 112.504 26.9398C112.681 26.604 112.946 26.3212 113.293 26.0797C113.647 25.8382 114.083 25.6556 114.613 25.526C115.137 25.3964 115.75 25.3316 116.451 25.3316C116.969 25.3316 117.517 25.3669 118.088 25.4435C118.66 25.5201 119.255 25.6379 119.862 25.791C119.838 25.526 119.756 25.2785 119.62 25.0547C119.485 24.8308 119.29 24.6364 119.043 24.4715C118.795 24.3065 118.501 24.1828 118.159 24.0886C117.812 24.0002 117.423 23.9531 116.987 23.9531C116.751 23.9531 116.486 23.9649 116.203 23.9943C115.921 24.0238 115.62 24.065 115.32 24.1239C115.013 24.1828 114.713 24.2535 114.418 24.336C114.118 24.4244 113.841 24.5245 113.588 24.6423L112.946 22.9104C113.264 22.7985 113.605 22.6924 113.971 22.5982C114.336 22.5039 114.707 22.4215 115.09 22.3508C115.473 22.2801 115.85 22.2271 116.233 22.1917C116.616 22.1564 116.981 22.1328 117.34 22.1328C118.913 22.1328 120.085 22.5334 120.851 23.3404C121.617 24.1416 122 25.3787 122 27.0399V30.7099H119.885V29.9205C119.667 30.0501 119.426 30.168 119.166 30.2858C118.907 30.3977 118.624 30.4979 118.318 30.5862C118.012 30.6746 117.688 30.7394 117.334 30.7924C116.987 30.8395 116.616 30.869 116.227 30.869C115.573 30.869 114.996 30.7983 114.495 30.6569C114 30.5155 113.582 30.3152 113.252 30.0619C112.916 29.8086 112.669 29.5141 112.498 29.1724C112.321 28.819 112.239 28.4478 112.239 28.0472ZM114.46 27.9766C114.46 28.1121 114.495 28.2475 114.566 28.3712C114.636 28.495 114.748 28.6069 114.907 28.707C115.066 28.8072 115.267 28.8838 115.508 28.9427C115.756 29.0016 116.05 29.031 116.398 29.031C116.769 29.031 117.128 28.9957 117.476 28.9309C117.823 28.8661 118.147 28.7777 118.448 28.6658C118.748 28.5539 119.019 28.4302 119.261 28.2888C119.502 28.1474 119.703 28.0001 119.867 27.847V27.4758C119.543 27.3875 119.225 27.3109 118.907 27.2461C118.589 27.1872 118.289 27.1342 118 27.0988C117.711 27.0635 117.44 27.0399 117.187 27.0222C116.934 27.0105 116.71 26.9987 116.521 26.9987C116.127 26.9987 115.797 27.0222 115.538 27.0753C115.278 27.1283 115.066 27.199 114.901 27.2873C114.742 27.3757 114.625 27.4817 114.56 27.5995C114.495 27.7233 114.46 27.847 114.46 27.9766Z" fill="#FDFDFD"/>
<path d="M37.6309 19.0987H26.2261C26.1967 15.0222 22.8978 11.7469 18.8213 11.741C14.7448 11.7351 11.44 15.0163 11.4047 19.0987H0.00585938V15.3285C0.188476 14.9338 0.518365 14.7866 0.936617 14.7218C2.45646 14.4744 3.97631 14.2034 5.49026 13.9206C5.61986 13.897 5.77892 13.7792 5.83193 13.6614C6.3032 12.5952 6.87462 11.5878 7.56385 10.6453C7.64632 10.5393 7.6581 10.3213 7.61098 10.1917C7.10436 8.7661 6.57418 7.34051 6.05579 5.9208C5.77891 5.16088 5.86728 4.90757 6.5624 4.507C8.47104 3.4054 10.3738 2.30381 12.2824 1.20811C12.9422 0.825199 13.2191 0.872327 13.708 1.45552C14.6859 2.61603 15.6638 3.78242 16.624 4.9547C16.7831 5.1491 16.9421 5.17855 17.1895 5.17266C18.2735 5.1491 19.3633 5.1491 20.4472 5.17266C20.6887 5.17855 20.8478 5.1491 21.0127 4.9547C21.9788 3.78242 22.9567 2.62192 23.9287 1.45552C24.4176 0.872327 24.6886 0.825199 25.3543 1.20811C27.2806 2.32148 29.2128 3.43486 31.1391 4.54823C31.7459 4.89579 31.8519 5.19034 31.6045 5.85601C31.0861 7.29338 30.5618 8.73075 30.0258 10.1622C29.9433 10.3802 29.9786 10.5275 30.0964 10.7278C30.6679 11.6821 31.2157 12.6423 31.7577 13.6143C31.8696 13.8146 31.9815 13.9206 32.2172 13.956C33.7606 14.2152 35.304 14.4861 36.8474 14.7571C37.3952 14.8514 37.6309 15.1341 37.6309 15.6879C37.6309 16.8189 37.6309 17.9559 37.6309 19.0987Z" fill="#FFCD00"/>
<path d="M37.6309 19.0986C37.6309 20.2709 37.6309 21.4491 37.6309 22.6214C37.6309 23.181 37.3894 23.4579 36.8474 23.5521C35.2922 23.829 33.737 24.0882 32.1877 24.3769C32.0405 24.4063 31.8755 24.5418 31.793 24.6773C31.2099 25.6552 30.662 26.6448 30.0847 27.6227C29.9787 27.7995 29.9492 27.9291 30.0199 28.1235C30.0965 28.3237 30.1672 28.5181 30.2437 28.7243H7.39894C7.46963 28.5358 7.53443 28.3473 7.60512 28.1588C7.68759 27.9408 7.65224 27.7936 7.53443 27.5933C6.96301 26.639 6.41516 25.6728 5.8732 24.7067C5.76128 24.5065 5.64935 24.4004 5.41371 24.3651C3.8703 24.1059 2.32689 23.829 0.783485 23.5639C0.41236 23.4991 0.164944 23.3047 0 22.9807V19.1045H11.4047V19.1399C11.3871 23.2281 14.6859 26.5388 18.7919 26.5683C22.8919 26.5918 26.238 23.2576 26.2262 19.1516V19.1045H37.6309V19.0986Z" fill="#003087"/>
<path d="M31.0685 33.8026C29.1598 34.9042 27.2571 36.0058 25.3484 37.1015C24.6827 37.4844 24.4118 37.4373 23.9228 36.8541C22.9449 35.6936 21.9671 34.5272 21.0068 33.3549C20.8478 33.1605 20.6828 33.131 20.4413 33.1369C19.3574 33.1605 18.2676 33.1605 17.1837 33.1369C16.9421 33.131 16.7831 33.1605 16.6181 33.3549C15.652 34.5272 14.68 35.6877 13.7022 36.8541C13.2132 37.4373 12.9422 37.4844 12.2766 37.1015C10.3502 35.9881 8.41804 34.8747 6.49173 33.7614C5.87907 33.4079 5.77893 33.1252 6.02635 32.4536C6.47994 31.2047 6.93354 29.9559 7.39303 28.7129H30.2319C30.6855 29.9323 31.1332 31.1576 31.581 32.3829C31.8578 33.1487 31.7695 33.3961 31.0685 33.8026Z" fill="#C8102E"/>
<path d="M20.2293 3.90033H17.4017C17.3486 3.90033 17.2956 3.87677 17.2603 3.82964L14.8509 0.86653C14.8097 0.819403 14.7979 0.754603 14.8215 0.689803C14.8391 0.630895 14.8921 0.583768 14.9511 0.571986C17.5136 -0.0583377 20.1174 -0.0583377 22.6799 0.571986C22.7388 0.589658 22.7918 0.630895 22.8095 0.689803C22.8272 0.748712 22.8154 0.813512 22.78 0.86653L20.3707 3.82964C20.3412 3.87677 20.2882 3.90033 20.2293 3.90033ZM17.49 3.53509H20.1468L22.3146 0.86653C19.9936 0.342242 17.6432 0.342242 15.3281 0.86653L17.49 3.53509Z" fill="#E6E9EA"/>
<path d="M19.6166 3.15227H18.0202C17.9672 3.15227 17.9141 3.12871 17.8788 3.08158L16.5239 1.41446C16.4826 1.36145 16.4709 1.29665 16.4944 1.23185C16.518 1.17294 16.571 1.12581 16.6358 1.11403C17.219 1.01388 17.8081 0.954976 18.3854 0.937304C18.4325 0.931413 18.4855 0.954976 18.5209 0.990321C18.5562 1.02567 18.5798 1.07279 18.5798 1.11992V2.39824C18.5798 2.47482 18.5268 2.54551 18.4561 2.57497C18.3795 2.59853 18.297 2.57497 18.2499 2.51017L17.6785 1.73257C17.6196 1.6501 17.6373 1.53817 17.7197 1.47337C17.8022 1.40857 17.9141 1.43214 17.9789 1.51461L18.2205 1.83861V1.31432C17.8258 1.33199 17.4252 1.37323 17.0246 1.42625L18.1262 2.78115H19.5459L20.6475 1.42625C20.2469 1.36734 19.8463 1.33199 19.4517 1.31432V1.86806L19.6814 1.57352C19.7462 1.49105 19.8581 1.47927 19.9406 1.54406C20.0231 1.60886 20.0348 1.72079 19.97 1.80326L19.4104 2.51606C19.3633 2.57497 19.2808 2.60442 19.2042 2.57497C19.1277 2.5514 19.0805 2.48071 19.0805 2.40413V1.12581C19.0805 1.07869 19.0982 1.02567 19.1394 0.996212C19.1748 0.960867 19.2219 0.943195 19.2749 0.943195C19.8463 0.960867 20.4354 1.01978 21.0245 1.11992C21.0893 1.1317 21.1423 1.17294 21.1659 1.23774C21.1895 1.29665 21.1777 1.36734 21.1364 1.42036L19.7815 3.08747C19.7226 3.12871 19.6696 3.15227 19.6166 3.15227Z" fill="#E6E9EA"/>
<path d="M6.32088 10.2979L4.90707 12.7485C4.87762 12.7956 4.83049 12.831 4.77748 12.8368L1.00732 13.4377C0.942517 13.4495 0.883607 13.4259 0.842371 13.3788C0.801135 13.3317 0.783463 13.2669 0.801136 13.208C1.53749 10.6749 2.83938 8.41869 4.66555 6.51004C4.70679 6.46292 4.77158 6.44524 4.83638 6.45703C4.89529 6.46881 4.94831 6.51004 4.97187 6.56895L6.33267 10.1329C6.35034 10.1918 6.35034 10.2507 6.32088 10.2979ZM4.6302 12.4893L5.95565 10.1918L4.73035 6.98131C3.11625 8.72501 1.93807 10.7633 1.23706 13.0312L4.6302 12.4893Z" fill="#E6E9EA"/>
<path d="M5.3607 10.4628L4.56543 11.8413C4.53597 11.8884 4.48885 11.9237 4.43583 11.9296L2.30922 12.2713C2.24442 12.2831 2.17962 12.2595 2.13839 12.2065C2.09715 12.1535 2.08537 12.0887 2.10893 12.0239C2.31511 11.4701 2.56253 10.9282 2.83351 10.4216C2.85708 10.3744 2.89831 10.345 2.94544 10.3332C2.99257 10.3214 3.04558 10.3273 3.08682 10.3509L4.1943 10.9871C4.26499 11.0283 4.30034 11.1049 4.28267 11.1815C4.26499 11.2581 4.20019 11.317 4.12361 11.3288L3.1634 11.4348C3.06326 11.4466 2.969 11.3759 2.96311 11.2698C2.95133 11.1697 3.02202 11.0754 3.12806 11.0696L3.52863 11.0283L3.07504 10.7691C2.89242 11.1226 2.72748 11.4878 2.57431 11.8648L4.29445 11.588L5.00135 10.3568L4.37692 8.73088C4.12361 9.04899 3.89387 9.37887 3.6818 9.70876L4.15896 9.98563L4.01758 9.63807C3.98223 9.54382 4.02347 9.43778 4.11772 9.39655C4.21198 9.3612 4.31801 9.40244 4.35925 9.49669L4.69503 10.3391C4.72448 10.4098 4.70681 10.4981 4.64201 10.5453C4.5831 10.5983 4.49474 10.6042 4.42994 10.5629L3.32834 9.92673C3.28711 9.90316 3.25176 9.86193 3.23998 9.8148C3.2282 9.76767 3.23409 9.71466 3.26355 9.67342C3.56398 9.18448 3.91154 8.70732 4.28856 8.24783C4.32979 8.19481 4.39459 8.17125 4.45939 8.18303C4.52419 8.19481 4.57721 8.23604 4.60077 8.30084L5.36659 10.3096C5.39604 10.3568 5.39015 10.4098 5.3607 10.4628Z" fill="#E6E9EA"/>
<path d="M4.90707 25.5492L6.32088 27.9998C6.35034 28.0469 6.35034 28.1058 6.33267 28.1589L4.97187 31.7228C4.94831 31.7817 4.90118 31.823 4.83638 31.8348C4.77748 31.8465 4.71268 31.8289 4.66555 31.7817C2.83938 29.8731 1.53749 27.6228 0.801136 25.0838C0.783463 25.0249 0.795244 24.9601 0.842371 24.913C0.883607 24.8659 0.948407 24.8423 1.00732 24.8541L4.77748 25.4549C4.83049 25.4667 4.87762 25.5021 4.90707 25.5492ZM5.95565 28.1058L4.6302 25.8084L1.23706 25.2664C1.94396 27.5403 3.11625 29.5727 4.73035 31.3164L5.95565 28.1058Z" fill="#E6E9EA"/>
<path d="M4.5654 26.4564L5.36066 27.8348C5.39012 27.882 5.39012 27.9409 5.37245 27.9939L4.60663 30.0027C4.58307 30.0616 4.53005 30.1087 4.46525 30.1205C4.40045 30.1323 4.33565 30.1087 4.29442 30.0557C3.9174 29.5962 3.56984 29.1191 3.2694 28.6301C3.23995 28.5889 3.23406 28.5359 3.24584 28.4887C3.25762 28.4416 3.28708 28.4004 3.3342 28.3768L4.44169 27.7406C4.51238 27.6994 4.59485 27.7111 4.65376 27.7642C4.71267 27.8172 4.73034 27.8996 4.70089 27.9762L4.31209 28.8599C4.27085 28.9541 4.16482 28.9953 4.07056 28.9541C3.97631 28.9129 3.93507 28.8068 3.97631 28.7126L4.14125 28.3415L3.68766 28.6007C3.89973 28.9364 4.13536 29.2604 4.38278 29.5785L5.00721 27.9527L4.30031 26.7215L2.58017 26.4446C2.73333 26.8216 2.89828 27.1869 3.0809 27.5403L3.55806 27.2634L3.18693 27.2104C3.08679 27.1986 3.0161 27.1044 3.03377 27.0042C3.04555 26.9041 3.13981 26.8334 3.23995 26.8511L4.13536 26.9807C4.21195 26.9925 4.27674 27.0514 4.28852 27.1279C4.3062 27.2045 4.26496 27.2811 4.20016 27.3223L3.09268 27.9586C3.05144 27.9821 2.99842 27.988 2.9513 27.9762C2.90417 27.9644 2.86293 27.9291 2.83937 27.8879C2.56839 27.3813 2.32686 26.8393 2.11479 26.2855C2.09123 26.2266 2.10301 26.1559 2.14425 26.1029C2.18548 26.0499 2.25028 26.0263 2.31508 26.0381L4.44169 26.3798C4.48882 26.3739 4.53594 26.4093 4.5654 26.4564Z" fill="#E6E9EA"/>
<path d="M17.4017 34.3975H20.2293C20.2823 34.3975 20.3353 34.421 20.3707 34.4681L22.78 37.4313C22.8213 37.4784 22.8331 37.5432 22.8095 37.608C22.7918 37.6669 22.7388 37.714 22.6799 37.7258C20.1174 38.3561 17.5136 38.3561 14.9511 37.7258C14.8922 37.7081 14.8391 37.6669 14.8215 37.608C14.8038 37.5491 14.8156 37.4843 14.8509 37.4313L17.2603 34.4681C17.2956 34.421 17.3487 34.3975 17.4017 34.3975ZM20.1468 34.7627H17.49L15.3222 37.4313C17.6432 37.9555 19.9937 37.9555 22.3088 37.4313L20.1468 34.7627Z" fill="#E6E9EA"/>
<path d="M18.0202 35.1458H19.6166C19.6696 35.1458 19.7226 35.1693 19.758 35.2164L21.1129 36.8836C21.1541 36.9366 21.1659 37.0014 21.1423 37.0662C21.1188 37.1251 21.0658 37.1722 21.001 37.184C20.4178 37.2841 19.8287 37.3431 19.2514 37.3607C19.2042 37.3666 19.1512 37.343 19.1159 37.3077C19.0805 37.2724 19.057 37.2252 19.057 37.1781V35.8998C19.057 35.8232 19.11 35.7525 19.1807 35.7231C19.2573 35.6995 19.3397 35.7231 19.3869 35.7879L19.9583 36.5655C20.0172 36.6479 19.9995 36.7599 19.917 36.8247C19.8346 36.8836 19.7226 36.8659 19.6578 36.7834L19.4163 36.4594V36.9837C19.811 36.966 20.2116 36.9248 20.6122 36.8718L19.5106 35.5169H18.0909L16.9893 36.8718C17.3899 36.9307 17.7904 36.966 18.1851 36.9837V36.43L17.9554 36.7245C17.8906 36.807 17.7786 36.8188 17.6962 36.754C17.6137 36.6892 17.6019 36.5772 17.6667 36.4948L18.2264 35.782C18.2735 35.7231 18.356 35.6936 18.4325 35.7231C18.5091 35.7466 18.5562 35.8173 18.5562 35.8939V37.1722C18.5562 37.2193 18.5386 37.2724 18.4973 37.3018C18.462 37.3372 18.4149 37.3548 18.3618 37.3548C17.7904 37.3372 17.2013 37.2782 16.6123 37.1781C16.5475 37.1663 16.4944 37.1251 16.4709 37.0603C16.4473 37.0014 16.4591 36.9307 16.5003 36.8777L17.8552 35.2106C17.9141 35.1693 17.9672 35.1458 18.0202 35.1458Z" fill="#E6E9EA"/>
<path d="M31.3159 27.9998L32.7297 25.5492C32.7591 25.502 32.8063 25.4667 32.8593 25.4608L36.6294 24.8599C36.6942 24.8482 36.7531 24.8717 36.7944 24.9188C36.8356 24.966 36.8533 25.0308 36.8356 25.0897C36.0993 27.6228 34.7974 29.879 32.9712 31.7876C32.93 31.8347 32.8652 31.8524 32.8004 31.8406C32.7415 31.8288 32.6884 31.7876 32.6649 31.7287L31.3041 28.1647C31.2805 28.1058 31.2864 28.0469 31.3159 27.9998ZM33.0066 25.8084L31.6811 28.1058L32.9064 31.3163C34.5205 29.5726 35.6987 27.5344 36.3997 25.2664L33.0066 25.8084Z" fill="#E6E9EA"/>
<path d="M32.2702 27.8349L33.0655 26.4564C33.095 26.4093 33.1421 26.374 33.1951 26.3681L35.3217 26.0264C35.3865 26.0146 35.4513 26.0382 35.4926 26.0912C35.5338 26.1442 35.5456 26.209 35.522 26.2738C35.3158 26.8276 35.0684 27.3695 34.7974 27.8761C34.7739 27.9233 34.7326 27.9527 34.6855 27.9645C34.6384 27.9763 34.5854 27.9704 34.5441 27.9468L33.4366 27.3106C33.3659 27.2694 33.3306 27.1928 33.3483 27.1162C33.3659 27.0396 33.4307 26.9807 33.5073 26.969L34.4675 26.8629C34.5677 26.8511 34.6619 26.9218 34.6678 27.0279C34.6796 27.128 34.6089 27.2223 34.5029 27.2282L34.1023 27.2694L34.5559 27.5286C34.7385 27.1751 34.9035 26.8099 35.0566 26.4329L33.3424 26.7156L32.6355 27.9468L33.2599 29.5727C33.5132 29.2546 33.743 28.9247 33.955 28.5948L33.4779 28.318L33.6193 28.6655C33.6546 28.7598 33.6134 28.8658 33.5191 28.907C33.4249 28.9424 33.3188 28.9012 33.2776 28.8069L32.9418 27.9645C32.9123 27.8938 32.93 27.8055 32.9948 27.7583C33.0537 27.7053 33.1421 27.6994 33.2069 27.7407L34.3144 28.3769C34.3556 28.4004 34.391 28.4417 34.4027 28.4888C34.4145 28.5359 34.4086 28.5889 34.3792 28.6302C34.0787 29.1191 33.7312 29.5963 33.3542 30.0558C33.3129 30.1088 33.2481 30.1323 33.1833 30.1206C33.1185 30.1088 33.0655 30.0676 33.0419 30.0028L32.2761 27.994C32.2408 27.9409 32.2467 27.8879 32.2702 27.8349Z" fill="#E6E9EA"/>
<path d="M32.7296 12.7484L31.3158 10.2978C31.2864 10.2507 31.2864 10.1918 31.3041 10.1388L32.6648 6.57481C32.6884 6.5159 32.7355 6.47467 32.8003 6.46289C32.8592 6.4511 32.924 6.46878 32.9712 6.5159C34.7973 8.42455 36.0992 10.6749 36.8356 13.2138C36.8533 13.2727 36.8415 13.3375 36.7943 13.3847C36.7531 13.4318 36.6883 13.4554 36.6294 13.4436L32.8592 12.8427C32.8062 12.8309 32.7591 12.7956 32.7296 12.7484ZM31.6752 10.1918L33.0006 12.4892L36.3938 13.0312C35.6869 10.7573 34.5146 8.72498 32.9005 6.98128L31.6752 10.1918Z" fill="#E6E9EA"/>
<path d="M33.0714 11.8413L32.2762 10.4628C32.2467 10.4157 32.2467 10.3568 32.2644 10.3038L33.0302 8.29499C33.0538 8.23608 33.1068 8.18895 33.1716 8.17717C33.2364 8.16539 33.3012 8.18895 33.3424 8.24197C33.7194 8.70146 34.067 9.17862 34.3674 9.66756C34.3969 9.7088 34.4028 9.76181 34.391 9.80894C34.3792 9.85607 34.3497 9.8973 34.3026 9.92087L33.1951 10.5571C33.1244 10.5983 33.042 10.5865 32.9831 10.5335C32.9242 10.4805 32.9065 10.398 32.9359 10.3214L33.3247 9.43782C33.366 9.34356 33.472 9.30233 33.5663 9.34356C33.6605 9.3848 33.7018 9.49083 33.6605 9.58509L33.4956 9.95621L33.9492 9.69701C33.7371 9.36123 33.5015 9.03724 33.254 8.71913L32.6355 10.3509L33.3424 11.5821L35.0625 11.859C34.9094 11.4819 34.7444 11.1167 34.5618 10.7633L34.0847 11.0401L34.4558 11.0932C34.5559 11.1049 34.6266 11.1992 34.6089 11.2993C34.5972 11.3995 34.5029 11.4702 34.4028 11.4525L33.5074 11.3229C33.4308 11.3111 33.366 11.2522 33.3542 11.1756C33.3365 11.099 33.3778 11.0225 33.4426 10.9812L34.55 10.345C34.5913 10.3214 34.6443 10.3156 34.6914 10.3273C34.7385 10.3391 34.7798 10.3745 34.8033 10.4157C35.0743 10.9223 35.3159 11.4643 35.5279 12.018C35.5515 12.0769 35.5397 12.1476 35.4985 12.2006C35.4572 12.2537 35.3924 12.2772 35.3276 12.2654L33.201 11.9238C33.1421 11.9238 33.095 11.8884 33.0714 11.8413Z" fill="#E6E9EA"/>
</svg>
