<svg width="34" height="24" viewBox="0 0 34 24" fill="none" xmlns="http://www.w3.org/2000/svg">
<circle cx="17" cy="12" r="12" fill="#D9D9D9"/>
<path d="M23.0078 23.9881H10.9837C10.7606 23.9881 10.5375 23.89 10.3887 23.6938L0.174502 11.2369C0.000958758 11.0407 -0.048625 10.7464 0.0505425 10.5012C0.124918 10.256 0.348033 10.0598 0.595951 9.98625C11.4796 7.33792 22.5368 7.33792 33.4204 9.98625C33.6683 10.0598 33.8915 10.2315 33.9658 10.5012C34.0402 10.7464 33.9906 11.0162 33.8419 11.2369L23.6276 23.6938C23.4788 23.8655 23.2557 23.9881 23.0078 23.9881ZM11.3804 22.4432H22.6607L31.8585 11.2369C22.0161 9.02991 12.025 9.02991 2.18264 11.2369L11.3804 22.4432Z" fill="#B3B3B3"/>
<path d="M20.4046 20.8248H13.6365C13.4133 20.8248 13.1902 20.7267 13.0414 20.5306L7.28972 13.5174C7.11617 13.2967 7.06659 13.0269 7.16576 12.7572C7.26493 12.512 7.48806 12.3158 7.76077 12.2668C10.24 11.8499 12.7439 11.6047 15.1983 11.5311C15.4215 11.5066 15.6198 11.6047 15.7686 11.7518C15.9173 11.899 16.0165 12.0951 16.0165 12.3158V17.6861C16.0165 18.0294 15.7933 18.3236 15.471 18.4217C15.1487 18.5198 14.8017 18.4217 14.6033 18.152L12.1737 14.8906C11.9258 14.5473 12.0002 14.0569 12.3473 13.8116C12.6944 13.5664 13.1902 13.64 13.4381 13.9833L14.4546 15.3565V13.1496C12.7687 13.2231 11.0829 13.3948 9.37224 13.64L14.0331 19.329H20.0575L24.7184 13.64C23.0078 13.3948 21.2971 13.2476 19.6361 13.1496V15.4791L20.6278 14.253C20.9005 13.9097 21.3963 13.8607 21.7186 14.1304C22.0657 14.4002 22.1153 14.8906 21.8426 15.2094L19.4625 18.201C19.2642 18.4707 18.9171 18.5688 18.5948 18.4462C18.2725 18.3481 18.0742 18.0539 18.0742 17.7106V12.3403C18.0742 12.1196 18.1486 11.9235 18.3221 11.7763C18.4708 11.6292 18.6692 11.5557 18.8923 11.5557C21.3219 11.6292 23.8259 11.8744 26.3299 12.2913C26.6026 12.3403 26.8257 12.512 26.9249 12.7817C27.0241 13.0269 26.9745 13.3212 26.8009 13.5419L21.0492 20.5551C20.8509 20.7267 20.6277 20.8248 20.4046 20.8248Z" fill="#B3B3B3"/>
</svg>
